<svg width="200" height="80" viewBox="0 0 200 80" fill="none" xmlns="http://www.w3.org/2000/svg">
<path d="M34.3398 58.4902C35.5184 59.5365 33.8779 60.1162 33.1612 59.6496C31.7278 58.8437 31.9826 55.931 32.3171 54.7716C34.4035 45.0296 52.433 25.7719 64.5217 15.7331C65.8914 14.6868 68.376 14.9271 68.376 17.1894C68.1212 23.9763 59.3613 38.7094 57.0041 48.621C65.9551 39.6284 74.3806 29.8299 83.6661 22.9865C84.6535 22.2937 85.6888 21.3039 86.9311 21.9968C88.2371 22.6896 87.9823 23.9056 87.7752 24.8953C86.5329 31.3852 81.3725 42.527 80.3214 48.7907C79.7958 53.2587 81.1018 52.1558 83.5227 49.54C85.5454 47.0515 86.9789 44.0823 88.0301 42.0604C89.0813 40.7313 89.7343 41.5938 89.0176 42.6966C87.7752 44.6054 84.2554 51.5054 82.153 52.7355C80.6558 53.6687 79.5409 53.4849 78.8242 52.8486C76.7378 50.9964 78.426 46.3587 78.9516 44.2661C80.8469 37.1258 84.5102 30.5793 85.5454 23.6228C78.2349 28.5574 72.2782 34.8211 66.4648 40.6747C63.1997 43.9268 59.4728 48.3948 56.6696 50.4167C54.7743 51.6327 54.1213 48.6776 54.4557 47.5747C56.2874 40.3778 64.5854 23.849 65.8914 16.8359C63.8687 16.737 27.5389 52.1699 34.3398 58.4902Z" fill="#020202"/>
<path d="M97.308 41.5473C98.0248 41.1372 98.8689 41.3776 98.0885 42.0704C95.4764 44.2196 94.1704 45.5487 91.5584 47.5847C90.5072 48.4614 89.1374 49.2108 87.7677 48.5179C85.092 47.0616 88.8189 39.992 89.7267 38.6063C90.0612 37.9701 90.6346 37.5035 91.6221 37.9135C92.4025 38.3235 91.8769 38.9032 91.6221 39.5395C90.6346 41.3918 90.1249 43.1309 89.4082 44.7003C88.5641 46.8495 88.7552 48.419 91.3672 46.2698C93.6448 44.4458 95.0145 43.2157 97.308 41.5473ZM93.39 35.2129C93.7882 36.2027 91.1761 36.952 90.8416 36.0188C90.6505 34.9301 93.0555 34.3504 93.39 35.2129Z" fill="#020202"/>
<path d="M98.8053 42.9329C100.828 40.7838 102.341 38.9315 103.647 37.9418C104.889 37.0652 105.67 38.2246 105.861 39.1578C105.861 40.6707 104.157 42.2825 104.364 43.6823C104.364 44.4882 102.867 43.7389 103.058 42.5229C103.121 41.5897 103.711 40.4869 104.045 39.5678C103.854 37.8852 98.423 45.0821 96.5277 48.7866C96.3366 49.1966 96.1295 49.4794 95.811 49.8894C95.0306 50.356 94.3776 49.14 94.6324 48.3765L98.3593 38.9174C99.076 37.1217 100.318 38.3943 100.318 39.1436C100.239 39.794 99.522 41.1373 98.8053 42.9329Z" fill="#020202"/>
<path d="M122.202 41.6039C123.046 40.9676 124.225 41.5473 123.253 42.4098C121.756 43.7389 120.45 44.8418 119.064 46.0012C117.822 46.9344 115.146 49.5926 113.777 48.0373C112.662 46.8213 113.06 44.7852 113.251 43.343C111.945 44.969 107.247 50.7096 105.017 49.6633C104.236 49.2532 103.647 48.0938 104.364 46.7082C105.734 43.4561 107.82 40.6707 111.021 38.5922C112.072 37.8994 113.968 37.2066 115.274 38.0691C116.452 38.8185 115.927 39.8648 115.736 40.798C115.337 42.7633 113.777 48.6311 117.376 45.9022C119.51 44.2055 120.37 42.9895 122.202 41.6039ZM113.57 39.6244C110.703 40.6707 107.358 44.3186 106.323 47.8535C109.19 45.9447 113.044 41.4766 113.57 39.6244Z" fill="#020202"/>
<path d="M127.219 38.9315C124.352 40.0344 121.469 45.3084 121.804 48.5604C123.444 49.3663 132.061 43.1733 133.558 41.6039C134.147 40.9676 134.737 41.5473 134.402 42.2401C134.339 42.537 134.004 42.7067 133.749 42.9895C130.803 45.5487 128 47.401 124.336 49.3098C121.915 50.6954 119.574 49.8895 119.829 47.3444C120.546 43.753 122.568 39.3416 125.977 37.5459C127.347 36.9096 128.525 37.4327 128.716 38.7618C128.78 39.695 128.907 40.7272 127.41 41.6039L127.219 38.9315Z" fill="#020202"/>
<path d="M133.893 49.4936C133.893 51.2893 134.482 52.1093 136.377 50.4268C140.566 46.5385 141.999 44.969 145.073 41.4908C146.125 40.4445 146.443 41.4342 146.125 42.0705C144.357 43.9227 140.63 48.1645 137.428 51.0065C136.122 52.1659 135.278 52.8022 133.765 52.5759C130.962 52.1093 131.615 46.6657 132.778 42.0846C134.928 34.1383 138.464 26.4183 142.573 19.4053C143.624 17.6096 145.519 18.4155 144.659 19.8153C141.012 26.2911 133.893 40.8969 133.893 49.4936Z" fill="#020202"/>
<path d="M157.99 42.7633C155.84 44.6156 153.483 46.185 151.062 47.401C149.565 48.0938 147.67 48.7866 146.157 48.7866C143.608 48.7866 143.083 46.7506 143.544 44.7287C144.07 42.4664 145.249 40.7273 146.746 39.3982C147.988 38.465 151.189 36.5562 152.623 38.0125C153.34 38.6488 153.021 39.3982 152.559 40.0486C151.651 41.6746 147.988 44.05 145.631 44.9832C145.44 45.5063 145.376 46.4961 145.44 46.7789C145.695 47.9383 147.59 47.6555 149.167 47.0051C152.559 45.7891 155.044 43.4703 157.656 41.6746C158.181 41.208 158.436 40.9252 158.643 41.5615C158.85 42.0564 158.325 42.3533 157.99 42.7633ZM146.172 43.2865C148.004 42.1836 150.282 40.9111 151.142 39.1154C148.976 39.7375 147.144 41.3635 146.172 43.2865Z" fill="#020202"/>
<path d="M160.602 47.1041C160.857 49.6491 160.348 52.2083 158.834 54.2444C157.465 55.9269 155.107 57.7226 152.766 57.4398C150.154 56.9732 151.858 54.0747 152.511 52.8587C154.009 50.5965 156.302 48.8008 158.325 47.2313C158.134 45.6619 157.544 43.8096 157.337 42.127C157.146 40.5576 157.21 39.1719 158.452 38.0691C160.348 36.3865 163.549 37.3763 163.023 40.2182C162.96 40.8545 161.845 40.798 162.036 39.8082C162.227 38.0691 158.834 37.6025 159.169 40.3314C159.631 42.127 159.949 43.8662 160.411 45.9588C162.768 44.5731 165.11 43.2865 167.658 42.0705C168.964 41.4342 169.299 42.2967 168.311 42.7633C165.763 44.0924 163.151 45.478 160.602 47.1041ZM152.894 54.6544C151.986 56.5632 153.674 56.4501 154.98 55.8704C157.465 54.4847 159.026 50.5965 158.643 48.5038C156.748 49.8329 153.817 52.7315 152.894 54.6544Z" fill="#020202"/>
<path d="M53.5563 61.1589L53.4926 61.173L53.0944 60.7771C52.9829 60.664 52.8555 60.6075 52.6803 60.6075H51.2469V62.2901H52.0273C52.1388 62.2901 52.2503 62.2618 52.3458 62.2052C52.4414 62.1486 52.5051 62.078 52.5529 61.979L52.5688 61.9648H52.6325V62.9405H52.5688L52.5529 62.9263C52.5051 62.8274 52.4414 62.7566 52.3458 62.7001C52.2503 62.6435 52.1547 62.6153 52.0273 62.6153H51.2469V64.312C51.2469 64.4109 51.2787 64.5099 51.3424 64.5948C51.4062 64.6796 51.4858 64.7362 51.5973 64.7786L51.7406 64.821V64.8775H50.0205V64.821L50.1639 64.7786C50.2753 64.7362 50.355 64.6796 50.4187 64.5948C50.4824 64.5099 50.5142 64.4251 50.5142 64.312V60.8337C50.5142 60.7347 50.4824 60.6357 50.4187 60.5509C50.355 60.4661 50.2753 60.4095 50.1639 60.3671L50.0205 60.3247V60.2681H53.4289L53.5563 61.1589Z" fill="#020202"/>
<path d="M58 60.5221C57.9363 60.6069 57.9044 60.6918 57.9044 60.8049V64.2832C57.9044 64.3822 57.9363 64.4812 58 64.566C58.0637 64.6508 58.1433 64.7074 58.2548 64.7498L58.3982 64.7922V64.8488H56.678V64.7922L56.8214 64.7498C56.9329 64.7074 57.0125 64.6508 57.0762 64.566C57.1399 64.4812 57.1718 64.3963 57.1718 64.2832V60.8049C57.1718 60.7059 57.1399 60.6069 57.0762 60.5221C57.0125 60.4373 56.9329 60.3807 56.8214 60.3383L56.678 60.2959V60.2393H58.3822V60.2959L58.2389 60.3383C58.1433 60.3807 58.0478 60.4373 58 60.5221Z" fill="#020202"/>
<path d="M66.298 61.1301L66.2343 61.1443L65.8361 60.7483C65.7246 60.6352 65.5972 60.5787 65.422 60.5787H64.2753V64.2832C64.2753 64.3822 64.3071 64.4812 64.3708 64.566C64.4345 64.6508 64.5142 64.7074 64.6257 64.7498L64.769 64.7922V64.8488H63.0489V64.7922L63.1922 64.7498C63.3037 64.7074 63.3834 64.6508 63.4471 64.566C63.5108 64.4812 63.5426 64.3963 63.5426 64.2832V60.5787H62.3959C62.2366 60.5787 62.0933 60.6352 61.9818 60.7483L61.5836 61.1443L61.5199 61.1301L61.6632 60.2393H66.1706L66.298 61.1301Z" fill="#020202"/>
<path d="M74.0227 60.5222C73.959 60.607 73.9271 60.6919 73.9271 60.805V64.2832C73.9271 64.3822 73.959 64.4812 74.0227 64.566C74.0864 64.6508 74.166 64.7074 74.2775 64.7498L74.4208 64.7922V64.8488L73.5608 64.8347L70.2639 60.7767V64.2832C70.2639 64.3822 70.2957 64.4812 70.3594 64.566C70.4231 64.6508 70.5028 64.7074 70.6143 64.7498L70.7576 64.7922V64.8488H69.4038V64.7922L69.5471 64.7498C69.6586 64.7074 69.7383 64.6508 69.802 64.566C69.8657 64.4812 69.8975 64.3963 69.8975 64.2832V60.805C69.8975 60.706 69.8657 60.607 69.802 60.5222C69.7383 60.4374 69.6586 60.3808 69.5471 60.3384L69.4038 60.296V60.2394L70.7576 60.2253L73.5608 63.6894V60.805C73.5608 60.706 73.5289 60.607 73.4652 60.5222C73.4015 60.4374 73.3219 60.3808 73.2104 60.3384L73.067 60.296V60.2394H74.4208V60.296L74.2775 60.3384C74.1819 60.3808 74.0864 60.4374 74.0227 60.5222Z" fill="#020202"/>
<path d="M81.3969 63.958L81.2376 64.8488H77.5266V64.7922L77.6699 64.7498C77.7814 64.7074 77.861 64.6508 77.9247 64.566C77.9884 64.4812 78.0203 64.3963 78.0203 64.2832V60.8049C78.0203 60.7059 77.9884 60.6069 77.9247 60.5221C77.861 60.4373 77.7814 60.3807 77.6699 60.3383L77.5266 60.2959V60.2393H80.935L81.0783 61.1301L81.0146 61.1443L80.6164 60.7483C80.5049 60.6352 80.3775 60.5787 80.2023 60.5787H78.7689V62.2613H79.5493C79.6608 62.2613 79.7723 62.233 79.8679 62.1764C79.9634 62.1199 80.0271 62.0492 80.0749 61.9502L80.0908 61.9361H80.1545V62.9117H80.0908L80.0749 62.8976C80.0271 62.7986 79.9634 62.7279 79.8679 62.6713C79.7723 62.6147 79.6767 62.5865 79.5493 62.5865H78.7689V64.5236H80.5209C80.6801 64.5236 80.8235 64.467 80.935 64.3539L81.3332 63.958H81.3969Z" fill="#020202"/>
<path d="M86.398 62.1057C86.5573 62.1906 86.7166 62.2613 86.8758 62.3461C87.0351 62.431 87.1784 62.5158 87.3059 62.6289C87.4333 62.742 87.5288 62.8693 87.6085 63.0248C87.6881 63.1803 87.72 63.3783 87.72 63.6187C87.72 63.8025 87.6722 63.958 87.5766 64.0994C87.4811 64.2408 87.3536 64.368 87.1944 64.4811C87.0351 64.5801 86.844 64.6649 86.6369 64.7215C86.4299 64.7781 86.2069 64.8063 85.9839 64.8063C85.8087 64.8063 85.6017 64.7781 85.3628 64.7357C85.1398 64.6791 84.9009 64.566 84.6779 64.368L84.5505 64.5377H84.4868V63.6328H84.5505C84.6302 63.7883 84.7416 63.9297 84.885 64.057C84.9965 64.1701 85.1398 64.2549 85.315 64.3397C85.4902 64.4246 85.7132 64.467 85.968 64.467C86.2706 64.467 86.5095 64.3963 86.6847 64.2691C86.8758 64.1277 86.9555 63.9156 86.9555 63.6045C86.9555 63.4348 86.8599 63.2652 86.6847 63.1096C86.5095 62.9541 86.2706 62.8127 85.9839 62.6572C85.8247 62.5723 85.6654 62.5017 85.5061 62.431C85.3469 62.3603 85.2035 62.2754 85.0761 62.1764C84.9487 62.0775 84.8531 61.9644 84.7735 61.8371C84.6939 61.7099 84.6461 61.5543 84.6461 61.3705C84.6461 61.2008 84.6779 61.0312 84.7576 60.8898C84.8372 60.7484 84.9487 60.6211 85.0761 60.5222C85.2194 60.4232 85.3787 60.3384 85.5698 60.2818C85.761 60.2253 85.968 60.197 86.2069 60.197C86.3821 60.197 86.5573 60.2252 86.7325 60.2677C86.9077 60.3101 87.0829 60.3666 87.2422 60.4515L87.3377 60.2677L87.4014 60.2535L87.5448 61.1584L87.4811 61.1726C87.4173 61.0595 87.3218 60.9463 87.1944 60.8615C87.0988 60.7767 86.9555 60.706 86.7962 60.6353C86.6369 60.5646 86.4299 60.5363 86.191 60.5363C86.0954 60.5363 85.9839 60.5505 85.8565 60.5646C85.745 60.5929 85.6335 60.6211 85.538 60.6636C85.4424 60.706 85.3628 60.7767 85.2832 60.8474C85.2195 60.9181 85.1876 61.017 85.1876 61.1302C85.1876 61.2433 85.2195 61.3422 85.2832 61.4412C85.3469 61.5261 85.4424 61.6109 85.538 61.6816C85.6495 61.7523 85.761 61.823 85.9043 61.8795C86.0476 61.9502 86.1751 62.0068 86.3184 62.0775L86.398 62.1057Z" fill="#020202"/>
<path d="M92.737 62.1057C92.8963 62.1906 93.0555 62.2613 93.2148 62.3461C93.3741 62.431 93.5174 62.5158 93.6448 62.6289C93.7722 62.742 93.8678 62.8693 93.9474 63.0248C94.027 63.1803 94.0589 63.3783 94.0589 63.6187C94.0589 63.8025 94.0111 63.958 93.9156 64.0994C93.82 64.2408 93.6926 64.368 93.5333 64.4811C93.3741 64.5801 93.1829 64.6649 92.9759 64.7215C92.7688 64.7781 92.5459 64.8063 92.3229 64.8063C92.1477 64.8063 91.9407 64.7781 91.7018 64.7357C91.4788 64.6791 91.2399 64.566 91.0169 64.368L90.8895 64.5377H90.8258V63.6328H90.8895C90.9691 63.7883 91.0806 63.9297 91.224 64.057C91.3355 64.1701 91.4788 64.2549 91.654 64.3397C91.8292 64.4246 92.0522 64.467 92.307 64.467C92.6096 64.467 92.8485 64.3963 93.0237 64.2691C93.2148 64.1277 93.2944 63.9156 93.2944 63.6045C93.2944 63.4348 93.1989 63.2652 93.0237 63.1096C92.8485 62.9541 92.6096 62.8127 92.3229 62.6572C92.1636 62.5723 92.0044 62.5017 91.8451 62.431C91.6858 62.3603 91.5425 62.2754 91.4151 62.1764C91.2877 62.0775 91.1921 61.9644 91.1125 61.8371C91.0328 61.7099 90.9851 61.5543 90.9851 61.3705C90.9851 61.2008 91.0169 61.0312 91.0966 60.8898C91.1762 60.7484 91.2877 60.6211 91.4151 60.5222C91.5584 60.4232 91.7177 60.3384 91.9088 60.2818C92.0999 60.2253 92.307 60.197 92.5459 60.197C92.7211 60.197 92.8963 60.2252 93.0714 60.2677C93.2466 60.3101 93.4218 60.3666 93.5811 60.4515L93.6767 60.2677L93.7404 60.2535L93.8837 61.1584L93.82 61.1726C93.7563 61.0595 93.6607 60.9463 93.5333 60.8615C93.4378 60.7767 93.2944 60.706 93.1352 60.6353C92.9759 60.5646 92.7689 60.5363 92.53 60.5363C92.4344 60.5363 92.3229 60.5505 92.1955 60.5646C92.084 60.5929 91.9725 60.6211 91.877 60.6636C91.7814 60.706 91.7018 60.7767 91.6221 60.8474C91.5584 60.9181 91.5266 61.017 91.5266 61.1302C91.5266 61.2433 91.5584 61.3422 91.6221 61.4412C91.6858 61.5261 91.7814 61.6109 91.877 61.6816C91.9884 61.7523 92.0999 61.823 92.2433 61.8795C92.3866 61.9502 92.514 62.0068 92.6574 62.0775L92.737 62.1057Z" fill="#020202"/>
<path d="M106.148 64.778V64.8346L104.953 64.8204C104.921 64.7639 104.889 64.6932 104.842 64.6083C104.81 64.5376 104.746 64.4387 104.698 64.3114C104.635 64.1842 104.555 64.0286 104.459 63.8448C104.38 63.6893 104.3 63.5338 104.236 63.3924C104.173 63.251 104.093 63.1237 104.029 63.0106C103.966 62.8975 103.886 62.8126 103.806 62.742C103.727 62.6713 103.647 62.643 103.567 62.643H102.962V64.2549C102.962 64.3538 102.994 64.4528 103.058 64.5376C103.121 64.6225 103.201 64.679 103.313 64.7214L103.456 64.7639V64.8204H101.704V64.7639L101.847 64.7214C101.959 64.679 102.038 64.6225 102.102 64.5376C102.166 64.4528 102.198 64.368 102.198 64.2549V60.8049C102.198 60.7059 102.166 60.6069 102.102 60.5221C102.038 60.4373 101.959 60.3807 101.847 60.3383L101.704 60.2959V60.2393H103.631C103.997 60.2393 104.284 60.2676 104.523 60.3383C104.762 60.3948 104.937 60.4938 105.065 60.5928C105.192 60.7059 105.288 60.8332 105.335 60.9746C105.383 61.1159 105.415 61.2715 105.415 61.4412C105.415 61.5684 105.399 61.6815 105.367 61.8088C105.335 61.9219 105.288 62.035 105.224 62.134C105.16 62.233 105.065 62.3178 104.937 62.3885C104.826 62.4592 104.666 62.5299 104.475 62.5723C104.619 62.7137 104.73 62.8692 104.826 63.053C104.921 63.2368 105.017 63.4065 105.112 63.5903C105.176 63.7176 105.24 63.8448 105.303 63.9579C105.367 64.0711 105.415 64.1842 105.463 64.269C105.574 64.4952 105.765 64.6508 106.004 64.7356L106.148 64.778ZM104.077 62.2895C104.236 62.2471 104.38 62.1623 104.491 62.0491C104.603 61.9219 104.666 61.7381 104.666 61.4694C104.666 61.2715 104.635 61.1301 104.571 61.0028C104.507 60.8756 104.427 60.8049 104.316 60.7342C104.22 60.6776 104.109 60.6352 103.982 60.6069C103.854 60.5928 103.743 60.5787 103.631 60.5787H102.93V62.3319H103.631C103.79 62.3319 103.934 62.3178 104.077 62.2895Z" fill="#020202"/>
<path d="M113.14 63.958L112.98 64.8488H109.269V64.7922L109.413 64.7498C109.524 64.7074 109.604 64.6508 109.667 64.566C109.731 64.4812 109.763 64.3963 109.763 64.2832V60.8049C109.763 60.7059 109.731 60.6069 109.667 60.5221C109.604 60.4373 109.524 60.3807 109.413 60.3383L109.269 60.2959V60.2393H112.678L112.821 61.1301L112.757 61.1443L112.359 60.7483C112.248 60.6352 112.12 60.5787 111.945 60.5787H110.512V62.2613H111.292C111.404 62.2613 111.515 62.233 111.611 62.1764C111.706 62.1199 111.77 62.0492 111.818 61.9502L111.834 61.9361H111.897V62.9117H111.834L111.818 62.8976C111.77 62.7986 111.706 62.7279 111.611 62.6713C111.515 62.6147 111.419 62.5865 111.292 62.5865H110.512V64.5236H112.264C112.423 64.5236 112.566 64.467 112.678 64.3539L113.076 63.958H113.14Z" fill="#020202"/>
<path d="M121.039 61.1301L120.976 61.1443L120.577 60.7483C120.466 60.6352 120.339 60.5787 120.163 60.5787H119.017V64.2832C119.017 64.3822 119.049 64.4812 119.112 64.566C119.176 64.6508 119.256 64.7074 119.367 64.7498L119.51 64.7922V64.8488H117.79V64.7922L117.934 64.7498C118.045 64.7074 118.125 64.6508 118.189 64.566C118.252 64.4812 118.284 64.3963 118.284 64.2832V60.5787H117.137C116.978 60.5787 116.835 60.6352 116.723 60.7483L116.325 61.1443L116.261 61.1301L116.405 60.2393H120.912L121.039 61.1301Z" fill="#020202"/>
<path d="M128.589 64.778V64.8346L127.394 64.8204C127.363 64.7639 127.331 64.6932 127.283 64.6083C127.251 64.5376 127.187 64.4387 127.14 64.3114C127.076 64.1842 126.996 64.0286 126.901 63.8448C126.821 63.6893 126.741 63.5338 126.678 63.3924C126.614 63.251 126.534 63.1237 126.471 63.0106C126.407 62.8975 126.327 62.8126 126.248 62.742C126.168 62.6713 126.088 62.643 126.009 62.643H125.404V64.2549C125.404 64.3538 125.435 64.4528 125.499 64.5376C125.563 64.6225 125.642 64.679 125.754 64.7214L125.897 64.7639V64.8204H124.161V64.7639L124.305 64.7214C124.416 64.679 124.496 64.6225 124.559 64.5376C124.623 64.4528 124.655 64.368 124.655 64.2549V60.8049C124.655 60.7059 124.623 60.6069 124.559 60.5221C124.496 60.4373 124.416 60.3807 124.305 60.3383L124.161 60.2959V60.2393H126.088C126.455 60.2393 126.741 60.2676 126.98 60.3383C127.219 60.3948 127.394 60.4938 127.522 60.5928C127.649 60.7059 127.745 60.8332 127.793 60.9746C127.84 61.1159 127.872 61.2715 127.872 61.4412C127.872 61.5684 127.856 61.6815 127.824 61.8088C127.793 61.9219 127.745 62.035 127.681 62.134C127.617 62.233 127.522 62.3178 127.394 62.3885C127.283 62.4592 127.124 62.5299 126.933 62.5723C127.076 62.7137 127.187 62.8692 127.283 63.053C127.378 63.2368 127.474 63.4065 127.57 63.5903C127.633 63.7176 127.697 63.8448 127.761 63.9579C127.824 64.0711 127.872 64.1842 127.92 64.269C128.031 64.4952 128.223 64.6508 128.461 64.7356L128.589 64.778ZM126.534 62.2895C126.694 62.2471 126.837 62.1623 126.948 62.0491C127.06 61.9219 127.124 61.7381 127.124 61.4694C127.124 61.2715 127.092 61.1301 127.028 61.0028C126.964 60.8897 126.885 60.8049 126.773 60.7342C126.678 60.6776 126.566 60.6352 126.439 60.6069C126.311 60.5928 126.2 60.5787 126.088 60.5787H125.388V62.3319H126.088C126.248 62.3319 126.391 62.3178 126.534 62.2895Z" fill="#020202"/>
<path d="M135.581 63.958L135.422 64.8488H131.711V64.7922L131.854 64.7498C131.965 64.7074 132.045 64.6508 132.109 64.566C132.172 64.4812 132.204 64.3963 132.204 64.2832V60.8049C132.204 60.7059 132.172 60.6069 132.109 60.5221C132.045 60.4373 131.965 60.3807 131.854 60.3383L131.711 60.2959V60.2393H135.119L135.262 61.1301L135.199 61.1443L134.8 60.7483C134.689 60.6352 134.561 60.5787 134.386 60.5787H132.953V62.2613H133.733C133.845 62.2613 133.956 62.233 134.052 62.1764C134.147 62.1199 134.211 62.0492 134.259 61.9502L134.275 61.9361H134.339V62.9117H134.275L134.259 62.8976C134.211 62.7986 134.147 62.7279 134.052 62.6713C133.956 62.6147 133.861 62.5865 133.733 62.5865H132.953V64.5236H134.705C134.864 64.5236 135.007 64.467 135.119 64.3539L135.517 63.958H135.581Z" fill="#020202"/>
<path d="M143.959 64.778V64.8346H142.047V64.778L142.35 64.6649C142.429 64.6366 142.477 64.5942 142.509 64.5377C142.541 64.4811 142.541 64.4104 142.509 64.3538L141.968 63.0954H140.247L139.69 64.3821C139.658 64.4528 139.658 64.5094 139.69 64.5659C139.722 64.6225 139.77 64.6649 139.849 64.6932L140.12 64.778V64.8346H138.718V64.778L138.782 64.7497C139.053 64.6508 139.244 64.4811 139.34 64.2549L141.076 60.2535H141.474L143.194 64.2266C143.305 64.4669 143.497 64.6366 143.751 64.7215L143.959 64.778ZM141.84 62.7561L141.107 61.1018L140.375 62.7561H141.84Z" fill="#020202"/>
<path d="M151.858 61.1301L151.795 61.1443L151.396 60.7483C151.285 60.6352 151.158 60.5787 150.982 60.5787H149.836V64.2832C149.836 64.3822 149.867 64.4812 149.931 64.566C149.995 64.6508 150.075 64.7074 150.186 64.7498L150.329 64.7922V64.8488H148.609V64.7922L148.753 64.7498C148.864 64.7074 148.944 64.6508 149.007 64.566C149.071 64.4812 149.103 64.3963 149.103 64.2832V60.5787H147.956C147.797 60.5787 147.653 60.6352 147.542 60.7483L147.144 61.1443L147.08 61.1301L147.223 60.2393H151.731L151.858 61.1301Z" fill="#020202"/>
</svg>
