<svg width="61" height="61" viewBox="0 0 61 61" fill="none" xmlns="http://www.w3.org/2000/svg">
<path d="M47.6561 31.9786V24.1944L48.1416 24.5518C48.3961 24.7394 48.7149 24.8176 49.0277 24.7696C49.3404 24.7217 49.6215 24.5513 49.8086 24.2963L52.6196 20.4615C53.0082 19.9314 52.8942 19.1868 52.3645 18.7977L27.1309 0.231766C26.7111 -0.0772552 26.1387 -0.0772552 25.7189 0.231766L16.9402 6.69096C16.4101 7.08049 16.2965 7.82652 16.6865 8.3566C17.0765 8.88668 17.8225 9.00024 18.3522 8.60977L26.4249 2.67043L49.9943 20.0119L48.5921 21.9251L27.1309 6.13481C26.7111 5.82579 26.1387 5.82579 25.7189 6.13481L4.25772 21.9251L2.85548 20.0124L10.675 14.2587C11.2051 13.8687 11.3187 13.1227 10.9287 12.5931C10.5387 12.063 9.79311 11.9494 9.26303 12.3394L0.485235 18.7977C-0.0439179 19.1872 -0.157939 19.9314 0.230664 20.4615L3.04118 24.2963C3.22827 24.5513 3.50936 24.7217 3.82211 24.7696C3.88214 24.7789 3.94218 24.7836 4.00222 24.7836C4.25492 24.7836 4.50251 24.7031 4.70822 24.5518L5.19362 24.1944V44.082C5.19362 44.7401 5.72696 45.2734 6.38503 45.2734H31.9789C31.9459 45.6686 31.9291 46.066 31.9291 46.4648C31.9291 54.4794 38.4493 61 46.4643 61C54.4793 61 60.9999 54.4794 60.9999 46.4648C60.9999 38.851 55.1155 32.5864 47.6561 31.9786ZM20.7085 42.8906V26.2109H32.1413V42.8906H20.7085ZM46.4647 58.6172C39.7635 58.6172 34.3119 53.1656 34.3119 46.4648C34.3119 43.6813 35.2771 40.9616 37.0298 38.8059C37.4449 38.2953 37.3677 37.5447 36.8572 37.1295C36.3466 36.7149 35.5964 36.7921 35.1813 37.3027C34.9504 37.5865 34.7317 37.8788 34.5241 38.1781V26.2109C34.5241 24.8971 33.4551 23.8281 32.1413 23.8281H20.7089C19.3951 23.8281 18.3261 24.8971 18.3261 26.2109V42.8906H7.57644V22.4413L26.4249 8.57347L45.2733 22.4413V31.979C44.9043 32.0088 44.5361 32.0521 44.1722 32.1098C43.5221 32.2131 43.079 32.8232 43.1819 33.4734C43.2847 34.1231 43.8953 34.5661 44.545 34.4633C45.1779 34.3632 45.8239 34.312 46.4643 34.312C53.1655 34.312 58.6171 39.7636 58.6171 46.4644C58.6171 53.1656 53.1655 58.6172 46.4647 58.6172Z" fill="#FFC86B"/>
</svg>
