<svg width="61" height="57" viewBox="0 0 61 57" fill="none" xmlns="http://www.w3.org/2000/svg">
<path d="M35.0947 32.623L40.8293 22.1232C41.4473 20.9919 42.467 20.2184 43.6151 19.8842C45.6382 19.2895 47.7795 20.1104 48.8839 21.8836L51.2173 17.6145L48.6069 8.88793C48.3165 7.81381 48.4045 6.77039 48.9346 5.78423C50.012 3.7849 52.4874 3.04539 54.4867 4.12277C55.4561 4.64634 56.1584 5.5143 56.4758 6.56748C57.7724 11.3429 59.593 15.9563 60.7276 20.7792C60.8966 21.5052 61.0181 22.275 60.998 23.0689C60.9743 23.9164 60.7919 24.7644 60.3493 25.5746L53.0007 39.0259L55.7396 43.4601C57.8031 46.8035 57.2963 50.0827 55.5301 52.4771C54.8581 53.3893 53.9967 54.1693 53.0277 54.7706C52.055 55.3681 50.9707 55.7902 49.8565 55.9829C46.925 56.4893 43.7641 55.4761 41.7005 52.1327L35.044 41.3598C34.2165 40.019 33.8689 38.5702 33.8856 37.1317C33.8991 35.5982 34.3552 33.9638 35.0947 32.623ZM20.8937 15.2675L19.2862 13.6568C18.1144 12.4882 17.5299 10.9412 17.5299 9.39475C17.5299 7.84778 18.1144 6.30453 19.2862 5.13268C20.4581 3.96082 22.0014 3.37675 23.5479 3.37675C25.0948 3.37675 26.6418 3.96082 27.8136 5.13268L29.6506 6.97005C30.1201 7.43916 30.8764 7.43916 31.346 6.97005L33.1866 5.13268C34.3585 3.96082 35.9017 3.37675 37.4487 3.37675C38.9952 3.37675 40.5389 3.96082 41.7108 5.13268C42.8826 6.30453 43.4699 7.84778 43.4699 9.39475C43.4699 10.9412 42.8821 12.4882 41.7108 13.6568L30.4985 24.8723L27.6954 22.0693C27.2259 21.5862 26.4626 21.5764 25.9865 22.0525C25.5169 22.5216 25.5202 23.2918 25.9968 23.7544L29.6506 27.412C30.1201 27.8778 30.8764 27.8778 31.346 27.412L43.4062 15.3518C45.0439 13.7141 45.8644 11.5523 45.8644 9.39475C45.8644 7.23672 45.0439 5.07869 43.4062 3.43725C41.7647 1.79953 39.6067 0.978577 37.4487 0.978577C35.2907 0.978577 33.1289 1.79953 31.4912 3.43725L30.4985 4.42993L29.5054 3.43725C27.8676 1.79953 25.7059 0.978577 23.5479 0.978577C21.3898 0.978577 19.2318 1.79953 17.5908 3.43725C15.9526 5.07869 15.1321 7.23672 15.1321 9.39475C15.1321 11.5523 15.9526 13.7141 17.5908 15.3518L19.195 16.956C19.6641 17.4358 20.4307 17.4456 20.904 16.9695C21.3768 16.4966 21.3698 15.7301 20.8937 15.2675ZM24.2911 18.6649C23.8252 18.1958 23.0652 18.1958 22.5994 18.6649C22.1298 19.1308 22.1298 19.8908 22.5994 20.3571C23.0652 20.8262 23.8252 20.8262 24.2911 20.3571C24.7607 19.8908 24.7607 19.1308 24.2911 18.6649ZM17.172 31.1435C17.4894 31.7248 17.2734 32.4475 16.6959 32.7649C16.1151 33.0791 15.3923 32.8659 15.0749 32.2851C12.532 27.6279 9.98909 22.974 7.44571 18.3173C7.28701 18.0269 7.26002 17.6992 7.34798 17.4056L10.0933 8.21916C10.2288 7.77006 10.1678 7.3042 9.95837 6.9156C9.50927 6.08161 8.47935 5.77771 7.6449 6.22681C7.26002 6.43624 6.9524 6.78761 6.81743 7.23672L2.59259 21.36C2.46414 21.9138 2.37293 22.4811 2.38689 23.0112C2.40039 23.5045 2.50138 23.9871 2.74478 24.433L10.4242 38.4925C10.6439 38.8909 10.6104 39.3605 10.3772 39.7151L7.29027 44.7134C5.82149 47.0911 6.16588 49.3944 7.39499 51.0623C7.8883 51.7311 8.51658 52.2984 9.22584 52.7373C9.93464 53.1766 10.7249 53.4838 11.5458 53.6257C13.5856 53.9766 15.8009 53.2539 17.2664 50.8766L23.923 40.107C24.4973 39.1748 24.7369 38.1616 24.7267 37.1517C24.7132 35.9868 24.3688 34.8145 23.808 33.7646L18.0706 23.2649C17.7733 22.7176 17.2734 22.3424 16.7094 22.1772C15.4938 21.8193 14.2405 22.5081 13.8826 23.7205C13.7271 24.2575 13.7611 24.8518 14.0278 25.3824L17.172 31.1435ZM45.9221 32.2851C45.608 32.8659 44.8819 33.0791 44.3011 32.7649C43.7236 32.4475 43.5104 31.7248 43.8246 31.1435L46.9315 25.4564C47.2322 24.9096 47.2796 24.2845 47.114 23.7209C46.7561 22.5049 45.5065 21.8193 44.2872 22.1772C43.7236 22.3429 43.227 22.7176 42.9264 23.2649L37.1885 33.7646C36.6277 34.815 36.2833 35.9868 36.2698 37.1517C36.2596 38.1616 36.503 39.1748 37.0768 40.107L43.7301 50.8766C45.1956 53.2543 47.4114 53.9771 49.4544 53.6257C50.2717 53.4838 51.0619 53.1766 51.7712 52.7377C52.4837 52.2984 53.112 51.7311 53.6016 51.0623C54.8307 49.3944 55.1755 47.0911 53.7063 44.7134L50.6198 39.7151C50.3899 39.3605 50.3564 38.8914 50.5723 38.4925L58.2518 24.4335C58.4984 23.9876 58.5966 23.5045 58.6101 23.0117C58.6231 22.4816 58.5324 21.9138 58.4039 21.36L54.1893 7.27023C54.0339 6.80437 53.7942 6.46649 53.3516 6.22681C52.5209 5.77771 51.491 6.08487 51.0386 6.9156C50.819 7.32421 50.7752 7.79054 50.9102 8.23312L53.649 17.4051C53.7365 17.6992 53.7132 18.0264 53.5545 18.3173C51.0079 22.974 48.465 27.6279 45.9221 32.2851ZM20.1672 22.1232L25.9055 32.623C26.6418 33.9638 27.0974 35.6015 27.1142 37.1317C27.1281 38.5702 26.78 40.019 25.9525 41.3598L19.2993 52.1327C17.2325 55.4766 14.0715 56.4893 11.1437 55.9829C10.0259 55.7902 8.94521 55.3681 7.97254 54.7706C6.99987 54.1693 6.14215 53.3893 5.46686 52.4771C3.70395 50.0827 3.19388 46.8035 5.26069 43.4601L7.99627 39.0259L0.64725 25.5746C0.204661 24.7644 0.0226921 23.9164 0.00221486 23.0689C-0.0182625 22.3699 0.0901741 21.38 0.289363 20.7117L4.52444 6.55445C4.84835 5.47381 5.58461 4.6226 6.51353 4.12277C8.5096 3.04539 10.985 3.78862 12.0619 5.78423C12.5618 6.70943 12.7107 7.82404 12.3863 8.90469L9.77919 17.6145L12.1127 21.8836C12.525 21.225 13.1026 20.6605 13.8318 20.2621C14.96 19.6441 16.2365 19.5464 17.3814 19.8842C18.5295 20.2184 19.5497 20.9919 20.1672 22.1232Z" fill="#FFC86B"/>
</svg>
