<svg width="49" height="61" viewBox="0 0 49 61" fill="none" xmlns="http://www.w3.org/2000/svg">
<path d="M42.1758 7.625H35.7422V7.31831C35.7422 5.41485 34.1938 3.86602 32.2899 3.86602H30.0807C29.0726 1.55069 26.7638 0 24.1814 0H23.9515C21.369 0 19.0602 1.55069 18.0521 3.86602H15.8429C13.939 3.86602 12.3906 5.41485 12.3906 7.31831V7.625H5.95703C2.22691 7.625 0 9.40652 0 12.3906V55.043C0 58.3277 2.67229 61 5.95703 61H42.1758C45.4605 61 48.1328 58.3277 48.1328 55.043V28.0776C48.1328 27.4196 47.5995 26.8862 46.9414 26.8862C46.2833 26.8862 45.75 27.4196 45.75 28.0776V55.043C45.75 57.0139 44.1467 58.6172 42.1758 58.6172H5.95703C3.98609 58.6172 2.38281 57.0139 2.38281 55.043V12.3906C2.38281 11.8014 2.38281 10.0078 5.95703 10.0078H12.3906V11.6758C12.3906 12.3338 12.924 12.8672 13.582 12.8672H34.5508C35.2088 12.8672 35.7422 12.3338 35.7422 11.6758V10.0078H42.1758C44.1467 10.0078 45.75 11.6111 45.75 13.582V17.5933C45.75 18.2513 46.2833 18.7847 46.9414 18.7847C47.5995 18.7847 48.1328 18.2513 48.1328 17.5933V13.582C48.1328 10.2973 45.4605 7.625 42.1758 7.625ZM33.3594 10.4844H14.7734V7.31831C14.7734 6.72865 15.2533 6.24883 15.8429 6.24883H18.8931C19.4311 6.24883 19.9021 5.88862 20.0431 5.36971C20.5201 3.61098 22.1276 2.38281 23.9515 2.38281H24.1814C26.0052 2.38281 27.6127 3.61098 28.0902 5.36971C28.2307 5.88862 28.7022 6.24883 29.2397 6.24883H32.2904C32.88 6.24883 33.3594 6.72865 33.3594 7.31831V10.4844Z" fill="#FFC86B"/>
</svg>
