<svg width="51" height="61" viewBox="0 0 51 61" fill="none" xmlns="http://www.w3.org/2000/svg">
<path d="M46.8074 20.7255C44.2296 17.0503 40.6954 15.0265 36.8558 15.0265C33.1656 15.0265 30.6317 18.0009 29.0963 18.948V15.0801C29.0963 11.6894 30.417 8.50067 32.8147 6.10189C34.2116 4.70521 34.212 2.44475 32.8148 1.04783C31.4184 -0.348856 29.1577 -0.349332 27.7606 1.04771C24.9851 3.82309 23.1342 7.27603 22.3596 11.0331C19.7058 6.30265 14.6417 3.09824 8.84253 3.09824H6.45972C6.45257 3.09824 6.44566 3.09919 6.43851 3.09931C5.77776 3.11075 5.26783 3.65498 5.26831 4.29024V6.67246C5.26831 10.2927 6.49856 13.715 8.76151 16.4724C6.51714 17.7368 4.58647 19.7816 3.11735 22.4703C1.43127 25.5557 0.502686 29.299 0.502686 33.0106C0.502686 38.3348 2.43026 45.2963 5.41342 50.7462C9.03292 57.3586 13.6448 61 18.3999 61C19.2746 61 22.0365 59.9647 22.9233 59.3774C24.1968 58.5353 25.3188 58.8195 25.6341 58.7835C26.4843 58.6866 27.3513 58.8978 28.0752 59.3771C28.9624 59.9647 31.7252 61 32.6002 61C37.3553 61 41.9672 57.3585 45.5867 50.7462C48.5699 45.2963 50.4974 38.3347 50.4974 33.0106C50.4973 28.5462 49.1525 24.0683 46.8074 20.7255ZM29.4455 2.73248C29.9108 2.26723 30.664 2.26676 31.1299 2.7326C31.5945 3.19736 31.5966 3.94998 31.1296 4.41713C28.2819 7.26638 26.7135 11.0531 26.7135 15.0801V19.7716C25.9248 19.9014 25.1211 19.9039 24.3307 19.7791C24.3306 18.3611 24.3306 16.4997 24.3306 15.0801C24.3307 10.416 26.1471 6.03077 29.4455 2.73248ZM7.66149 7.1763L12.7656 12.2804C13.2311 12.7457 13.9851 12.7455 14.4506 12.2804C14.9158 11.8152 14.9158 11.0608 14.4506 10.5954L9.34673 5.49154C16.3403 5.75758 21.9479 11.5289 21.9479 18.5863V18.9762C19.729 17.6506 17.0487 13.6825 11.0606 15.4892C8.96953 13.1966 7.77801 10.2849 7.66149 7.1763ZM43.4963 49.6022C41.6568 52.9628 37.8016 58.5958 32.6294 58.6172C32.1172 58.5518 30.0143 57.8036 29.3905 57.3904C28.2381 56.6274 26.8609 56.2788 25.4991 56.4022C24.1373 56.2796 22.7614 56.6275 21.6079 57.3904C20.984 57.8036 18.8818 58.5518 18.3701 58.6172C13.1978 58.5958 9.3428 52.9625 7.50327 49.6022C4.69787 44.477 2.88514 37.9645 2.88514 33.0106C2.88538 26.134 6.36178 19.8095 11.1514 17.9725C11.1515 17.9725 11.1515 17.9724 11.1516 17.9724C12.1145 17.6028 13.1225 17.4135 14.1479 17.4093C14.1542 17.4093 14.1603 17.4093 14.1664 17.4093C17.0741 17.4093 19.1918 20.2677 21.0362 21.1933C23.844 22.6004 27.1292 22.6169 29.9625 21.1931C31.8046 20.2695 33.9363 17.4093 36.8556 17.4093C39.8962 17.4093 42.7377 19.073 44.8564 22.0937C46.9268 25.0453 48.1143 29.0244 48.1143 33.0106C48.1144 37.9644 46.3017 44.477 43.4963 49.6022Z" fill="#FFC86B"/>
</svg>
